<svg width="22" height="22" viewBox="0 0 22 22" fill="none" xmlns="http://www.w3.org/2000/svg">
<path d="M18.249 3.41763C17.2776 2.43961 16.1222 1.66355 14.8495 1.13418C13.5767 0.60481 12.2118 0.332603 10.8333 0.333253C8.04856 0.333253 5.37784 1.4395 3.40871 3.40863C1.43958 5.37776 0.333332 8.04848 0.333332 10.8333C0.333332 13.618 1.43958 16.2887 3.40871 18.2579C5.37784 20.227 8.04856 21.3333 10.8333 21.3333C15.729 21.3333 19.8108 17.9864 20.979 13.4583H18.249C17.7083 14.9932 16.7046 16.3226 15.3763 17.263C14.0481 18.2033 12.4608 18.7083 10.8333 18.7083C8.74475 18.7083 6.74172 17.8786 5.26487 16.4017C3.78802 14.9249 2.95833 12.9218 2.95833 10.8333C2.95833 8.74467 3.78802 6.74164 5.26487 5.26479C6.74172 3.78794 8.74475 2.95825 10.8333 2.95825C13.0121 2.95825 14.9546 3.86388 16.3721 5.2945L12.1458 9.52075H21.3333V0.333253L18.249 3.41763Z" fill="#F1AC04"/>
</svg>
