<svg width="20" height="21" viewBox="0 0 20 21" fill="none" xmlns="http://www.w3.org/2000/svg">
<path d="M9.99999 10.5199C9.44746 10.5199 8.91755 10.3004 8.52685 9.90974C8.13615 9.51904 7.91666 8.98914 7.91666 8.4366C7.91666 7.88407 8.13615 7.35417 8.52685 6.96347C8.91755 6.57276 9.44746 6.35327 9.99999 6.35327C10.5525 6.35327 11.0824 6.57276 11.4731 6.96347C11.8638 7.35417 12.0833 7.88407 12.0833 8.4366C12.0833 8.71019 12.0294 8.9811 11.9247 9.23386C11.82 9.48662 11.6666 9.71629 11.4731 9.90974C11.2797 10.1032 11.05 10.2567 10.7972 10.3614C10.5445 10.4661 10.2736 10.5199 9.99999 10.5199ZM9.99999 2.60327C8.45289 2.60327 6.96916 3.21785 5.8752 4.31182C4.78124 5.40578 4.16666 6.88951 4.16666 8.4366C4.16666 12.8116 9.99999 19.2699 9.99999 19.2699C9.99999 19.2699 15.8333 12.8116 15.8333 8.4366C15.8333 6.88951 15.2187 5.40578 14.1248 4.31182C13.0308 3.21785 11.5471 2.60327 9.99999 2.60327Z" fill="white"/>
</svg>
