<svg width="56" height="56" viewBox="0 0 56 56" fill="none" xmlns="http://www.w3.org/2000/svg">
<g filter="url(#filter0_d_419_724)">
<circle cx="25" cy="23" r="15" fill="white"/>
<path d="M25 18C24.45 18 23.9793 17.8043 23.588 17.413C23.1967 17.0217 23.0007 16.5507 23 16C22.9993 15.4493 23.1953 14.9787 23.588 14.588C23.9807 14.1973 24.4513 14.0013 25 14C25.5487 13.9987 26.0197 14.1947 26.413 14.588C26.8063 14.9813 27.002 15.452 27 16C26.998 16.548 26.8023 17.019 26.413 17.413C26.0237 17.807 25.5527 18.0027 25 18ZM23.5 32V20H26.5V32H23.5Z" fill="#608EE9"/>
</g>
<defs>
<filter id="filter0_d_419_724" x="0" y="0" width="56" height="56" filterUnits="userSpaceOnUse" color-interpolation-filters="sRGB">
<feFlood flood-opacity="0" result="BackgroundImageFix"/>
<feColorMatrix in="SourceAlpha" type="matrix" values="0 0 0 0 0 0 0 0 0 0 0 0 0 0 0 0 0 0 127 0" result="hardAlpha"/>
<feOffset dx="3" dy="5"/>
<feGaussianBlur stdDeviation="6.5"/>
<feComposite in2="hardAlpha" operator="out"/>
<feColorMatrix type="matrix" values="0 0 0 0 0.752941 0 0 0 0 0.768627 0 0 0 0 0.917647 0 0 0 1 0"/>
<feBlend mode="normal" in2="BackgroundImageFix" result="effect1_dropShadow_419_724"/>
<feBlend mode="normal" in="SourceGraphic" in2="effect1_dropShadow_419_724" result="shape"/>
</filter>
</defs>
</svg>
