<svg width="30" height="30" viewBox="0 0 30 30" fill="none" xmlns="http://www.w3.org/2000/svg">
<path d="M10.8063 25.625C11.0763 26.5274 11.6302 27.3186 12.3857 27.8812C13.1412 28.4437 14.0581 28.7475 15 28.7475C15.9419 28.7475 16.8588 28.4437 17.6143 27.8812C18.3698 27.3186 18.9237 26.5274 19.1937 25.625H10.8063ZM3.75 24.375H26.25V20.625L23.75 16.875V10.625C23.75 9.47593 23.5237 8.33812 23.0839 7.27652C22.6442 6.21492 21.9997 5.25033 21.1872 4.43782C20.3747 3.6253 19.4101 2.98078 18.3485 2.54105C17.2869 2.10133 16.1491 1.875 15 1.875C13.8509 1.875 12.7131 2.10133 11.6515 2.54105C10.5899 2.98078 9.62533 3.6253 8.81282 4.43782C8.0003 5.25033 7.35578 6.21492 6.91605 7.27652C6.47633 8.33812 6.25 9.47593 6.25 10.625V16.875L3.75 20.625V24.375Z" fill="#FFBE98"/>
</svg>
